<?xml version="1.0" standalone="no"?>
<!DOCTYPE svg PUBLIC "-//W3C//DTD SVG 20010904//EN"
 "http://www.w3.org/TR/2001/REC-SVG-20010904/DTD/svg10.dtd">
<svg version="1.0" xmlns="http://www.w3.org/2000/svg"
 width="1024.000000pt" height="1024.000000pt" viewBox="0 0 1024.000000 1024.000000"
 preserveAspectRatio="xMidYMid meet">

<g transform="translate(0.000000,1024.000000) scale(0.100000,-0.100000)"
fill="#000000" stroke="none">
<path d="M3052 7739 c-292 -49 -520 -259 -593 -547 -19 -76 -19 -113 -17
-1283 l3 -1204 26 -77 c41 -120 94 -204 183 -294 87 -87 169 -139 289 -183
l72 -26 856 -3 857 -3 74 -102 c41 -56 109 -150 152 -209 42 -59 91 -119 107
-133 38 -32 95 -34 133 -4 14 11 79 93 143 182 65 89 135 185 157 212 l39 50
841 5 841 5 86 31 c160 57 315 180 397 317 42 70 78 172 92 262 7 48 10 442 8
1245 l-3 1175 -31 88 c-38 106 -82 180 -153 258 -94 104 -220 182 -359 222
l-77 22 -2035 1 c-1162 1 -2058 -2 -2088 -7z m4153 -204 c32 -9 86 -30 119
-47 79 -42 192 -155 228 -230 61 -124 58 -66 58 -1333 0 -1039 -2 -1167 -16
-1216 -53 -176 -173 -304 -348 -368 l-71 -26 -862 -5 -861 -5 -27 -25 c-15
-14 -88 -110 -163 -214 -111 -155 -137 -186 -146 -173 -6 8 -64 92 -129 186
-65 94 -134 184 -153 201 l-35 30 -832 0 c-532 0 -855 4 -897 11 -188 30 -364
185 -423 374 l-22 70 0 1160 c0 962 2 1169 14 1215 49 193 196 344 384 395 44
11 371 14 2087 14 1797 1 2043 -1 2095 -14z"/>
<path d="M3272 7018 c-25 -25 -20 -47 152 -628 122 -409 115 -387 133 -405 19
-20 221 -22 245 -2 9 6 54 137 102 293 47 155 89 291 94 303 6 18 18 -8 56
-131 108 -346 142 -444 158 -460 25 -25 218 -26 242 -2 9 8 31 65 50 127 180
582 256 840 256 870 0 44 -8 47 -131 47 -91 0 -100 -2 -113 -22 -14 -22 -53
-154 -141 -478 -20 -74 -40 -146 -44 -158 -5 -18 -31 56 -105 295 -54 175
-105 328 -112 341 -13 20 -22 22 -104 22 -72 0 -93 -3 -108 -18 -10 -10 -58
-154 -112 -334 -83 -279 -110 -353 -110 -305 0 37 -162 622 -176 638 -15 16
-32 19 -119 19 -65 0 -105 -4 -113 -12z"/>
<path d="M4916 7008 c-14 -20 -16 -85 -16 -511 0 -317 4 -495 10 -508 10 -18
25 -19 381 -19 l369 0 11 28 c11 28 7 150 -5 171 -5 8 -84 11 -267 11 l-259 0
0 105 0 105 219 0 c191 0 220 2 232 17 8 9 15 47 17 93 6 114 16 110 -249 110
l-219 0 0 95 0 95 249 0 c214 0 252 2 265 16 20 19 23 183 4 202 -9 9 -105 12
-369 12 l-358 0 -15 -22z"/>
<path d="M5843 7019 c-10 -10 -13 -128 -13 -520 0 -427 2 -508 14 -518 11 -9
97 -11 328 -9 l313 3 67 33 c114 56 168 142 168 266 -1 104 -45 177 -134 223
l-49 25 30 18 c71 43 113 123 113 217 0 107 -50 187 -147 235 l-68 33 -305 3
c-235 2 -308 0 -317 -9z m533 -204 c74 -31 81 -143 11 -185 -28 -17 -51 -20
-179 -20 l-148 0 0 110 0 110 140 0 c101 0 151 -4 176 -15z m53 -449 c24 -23
31 -38 31 -67 0 -104 -33 -121 -242 -127 l-158 -5 0 117 0 117 169 -3 170 -3
30 -29z"/>
<path d="M4391 5734 c-164 -44 -301 -185 -347 -359 -16 -59 -18 -211 -3 -275
24 -105 109 -229 200 -289 209 -140 482 -115 657 60 101 101 145 214 144 374
-1 237 -147 432 -367 490 -73 19 -212 18 -284 -1z m266 -235 c190 -92 198
-425 13 -519 -143 -73 -297 -28 -367 108 -29 56 -33 73 -33 142 0 116 32 190
106 247 73 55 193 64 281 22z"/>
<path d="M5517 5735 c-127 -35 -243 -127 -305 -242 -84 -157 -84 -358 -1 -514
38 -71 136 -167 207 -203 281 -142 629 -1 723 293 27 83 30 241 7 317 -54 176
-185 303 -359 349 -66 18 -207 18 -272 0z m257 -234 c56 -24 109 -86 136 -157
28 -74 24 -187 -9 -251 -68 -135 -232 -187 -369 -117 -100 52 -148 148 -140
284 10 171 128 280 287 265 30 -3 73 -14 95 -24z"/>
<path d="M3147 5728 c-20 -15 -30 -136 -15 -179 9 -25 15 -28 74 -34 36 -4
105 -5 154 -3 l90 4 0 -364 c0 -231 4 -370 10 -383 9 -17 22 -19 105 -19 86 0
95 2 110 23 14 19 15 66 13 380 l-3 357 136 3 c98 1 141 6 152 16 14 11 17 32
17 102 0 77 -2 90 -19 99 -30 16 -802 14 -824 -2z"/>
<path d="M6286 5724 c-14 -14 -16 -71 -16 -475 0 -298 4 -467 10 -480 9 -17
22 -19 100 -19 68 0 92 4 105 16 14 14 16 49 13 290 -2 202 0 270 8 261 6 -7
87 -124 179 -262 93 -137 179 -262 193 -277 25 -27 30 -28 118 -28 71 0 96 4
108 16 14 14 16 71 16 479 l0 464 -22 15 c-16 11 -46 16 -104 16 -120 0 -113
18 -116 -309 l-3 -273 -50 78 c-113 181 -308 470 -327 487 -28 24 -189 25
-212 1z"/>
<path d="M3382 3802 c-17 -18 -33 -44 -36 -59 -4 -16 -67 -235 -141 -488 -73
-253 -137 -477 -140 -497 -10 -55 1 -85 37 -104 29 -15 45 -15 138 -6 179 20
503 26 655 13 475 -40 790 -121 1090 -281 136 -72 126 -73 308 19 262 133 507
200 897 247 183 22 611 25 787 6 136 -16 165 -10 193 40 18 34 11 63 -125 523
-53 176 -112 375 -132 443 -51 172 -51 172 -236 172 -639 -1 -1133 -123 -1441
-357 -49 -38 -95 -72 -102 -77 -9 -7 -24 1 -52 26 -94 85 -269 185 -425 242
-277 103 -577 152 -1004 163 l-242 6 -29 -31z m603 -187 c398 -47 721 -156
925 -313 119 -91 114 -77 118 -419 2 -181 0 -293 -6 -293 -5 0 -54 20 -108 44
-364 161 -822 235 -1376 223 -137 -3 -248 -3 -248 0 0 3 11 42 25 87 13 44 59
198 100 341 42 143 83 282 92 309 l16 49 166 -6 c91 -4 225 -14 296 -22z
m2750 -32 c9 -32 61 -207 116 -390 54 -182 99 -333 99 -336 0 -3 -100 -3 -222
0 -567 14 -1080 -71 -1434 -236 l-84 -40 0 277 c0 156 5 293 10 314 25 90 247
242 470 322 228 83 597 140 927 145 l102 1 16 -57z"/>
</g>
</svg>
